<?xml version="1.0" encoding="UTF-8"?>
<svg width="2999px" height="1314px" viewBox="0 0 2999 1314" version="1.1" xmlns="http://www.w3.org/2000/svg" xmlns:xlink="http://www.w3.org/1999/xlink">
    <title>474749</title>
    <defs>
        <path d="M2999,0 L2999,911 L0,911 L0,0 L2999,0 Z M861,33 L33,33 L33,878 L861,878 L861,33 Z M1766,391.264 C1761.304,388.878 1754.3,388.411 1748.4,390.092 C1741.902,391.943 1737.407,399 1711.517,448 C1685.204,497.8 1684.195,499.865 1684.059,504.2 C1683.95,507.719 1689.1,513.675 1693,514.539 C1701.05,516.323 1705.404,512.5 1713.657,496.4 L1713.657,496.4 L1719.5,485 L1792.8,485 L1799.634,497.6 C1807.552,512.2 1809.916,514.5 1817,514.5 C1821,514.5 1822.469,513.956 1825,511.536 C1829.5,507.234 1829.826,503.3 1826.304,495.8 C1820.575,483.6 1775.82,400.434 1773.136,397 C1771.644,395.091 1768.4,392.484 1766,391.264 Z M1517.738,393.9 C1512.805,386.62 1499.748,387.6 1496.429,395.5 C1496.37767,395.622095 1496.32798,395.751723 1496.2799,395.889564 L1496.20899,396.102569 C1495.32589,398.880797 1495.01592,404.746294 1495.0006,418.359123 L1495,440 L1422,440 L1422,420.3 C1422,397.7 1421.289,393.765 1416.7,390.953 C1410.1,386.911 1400.408,389.596 1398.124,396.1 C1397.36546,398.25922 1397.02092,414.388923 1396.99997,448.941128 L1396.99997,452.2 C1396.99997,453.961 1396.99997,455.668601 1396.99997,457.324507 L1396.99997,462.138843 C1397.01584,510.83771 1397.32702,510.45592 1403.5,513.4 C1408,515.546 1411.785,515.414 1415.8,512.972 C1421.385,509.574 1422,506.6 1422,483 L1422,483 L1422,462 L1494.9,462 L1495.5,508 L1498.95316,511.452087 C1501.68694,514.155986 1502.71429,514.5 1507.4,514.5 C1513.8,514.5 1517.346,511.943 1519.05,506.1 C1519.57899,504.28511 1519.85422,492.280641 1519.86336,471.012897 L1519.86336,468.484928 C1519.8602,462.77372 1519.8392,456.44 1519.8,449.5 C1519.524,400.8 1519.357,396.289 1517.738,393.9 Z M1314,389.435 C1294.1,388.934 1284.951,390.798 1270.5,398.301 C1245.674,411.191 1234.029,439.9 1241.62,469.5 C1249.746,501.185 1285.3,519.862 1325.7,513.668 C1354.4,509.269 1373.186,493.188 1362.579,482.1 C1357.233,476.511 1352,477.069 1341.2,484.38 C1321.7,497.58 1289.553,494.983 1274.609,479 C1266.458,470.282 1262.912,458.1 1264.857,445.5 C1268.195,423.886 1285.1,410.926 1309.9,410.969 C1323.667,410.993 1331.8,413.568 1346.5,422.555 C1348.7,423.9 1351.805,425.007 1353.4,425.017 C1360.8,425.059 1366.703,418.64 1365.37,412 C1364.002,405.187 1350.9,396.246 1336,391.958 C1330.31,390.321 1325,389.712 1314,389.435 Z M2363.56316,391.085716 L2359.75001,391.085716 C2357.36545,391.087496 2354.804,391.09244 2352.05,391.1 C2331.95,391.155 2314.105,391.605 2312.4,392.1 C2310.7,392.594 2308.529,393.858 2307.593,394.9 C2303.27,399.711 2303.098,402 2303.048,455.5 C2303.04386,459.892 2303.03983,463.907658 2303.03983,467.581372 L2303.03983,471.142379 C2303.04737,504.871546 2303.30792,507.00544 2304.95,509.7 C2308.668,515.8 2319.569,516.466 2324.602,510.9 C2326.292,509.03 2326.555,506.65 2327,489.15 L2327,489.15 L2327.5,469.5 L2367.4,469.5 L2383.981,490.5 C2401.826,513.1 2404.557,515.507 2411.4,514.667 C2416.1,514.091 2420.78,509.876 2421.578,505.5 C2422.421,500.883 2419.864,496.6 2407.011,481.1 C2400.875,473.7 2395.676,467.342 2395.4,466.9 C2395.121,466.454 2397.2,464.937 2400.1,463.47 C2407.7,459.626 2414.29,452.926 2417.579,445.7 C2420.044,440.283 2420.406,438.3 2420.45,430 C2420.485,423.3 2419.958,418.938 2418.663,415.2 C2414.996,404.622 2405.5,395.909 2394,392.568 C2390.11194,391.43882 2384.51688,391.10397 2363.56316,391.085716 L2363.56316,391.085716 Z M2696.6,390.047 C2679.8,387.709 2656.679,389.408 2643.6,393.942 C2622.3,401.325 2612.745,418.22 2618.626,438.1 C2620.608,444.8 2622.74,447.865 2627.9,451.433 C2636.577,457.432 2647.8,459.309 2685,460.982 C2709.6,462.089 2714.918,463.279 2718.155,468.4 C2720.548,472.186 2720.124,477.7 2717.117,481.9 C2712.154,488.833 2696.3,492.565 2675.5,491.695 C2659.5,491.026 2650.113,488.706 2638.3,482.502 C2628.2,477.198 2625.335,477.213 2620.205,482.6 C2604.183,499.426 2649.2,518.827 2693.2,514.059 C2712.2,512 2724.3,507.542 2733,499.395 C2740.186,492.667 2742.5,486.7 2742.5,474.9 C2742.5,466.3 2742.215,464.841 2739.495,459.5 C2734.098,448.903 2722.4,442.602 2703.5,440.114 C2693.5,438.798 2668.714,437.07 2659.5,437.047 C2647.1,437.015 2641,434.032 2641,428 C2641,416.655 2654.9,411.35 2682.3,412.237 C2698.5,412.761 2705.422,414.516 2715.3,420.603 C2719.3,423.068 2722.867,424.45 2726,424.75 C2730.1,425.143 2731.134,424.817 2734.1,422.2 C2737.003,419.638 2737.5,418.55 2737.5,414.75 C2737.5,411.55 2736.768,409.345 2734.893,406.9 C2729.319,399.632 2712.6,392.274 2696.6,390.047 Z M1152.5,389.414 C1123.2,388.707 1105.772,393.661 1094.863,405.8 C1087.41,414.093 1085.094,426.1 1088.634,438.1 C1090.61,444.8 1092.74,447.865 1097.9,451.433 C1106.577,457.432 1117.8,459.309 1155,460.982 C1179.6,462.089 1184.918,463.279 1188.155,468.4 C1190.548,472.186 1190.124,477.7 1187.117,481.9 C1182.154,488.833 1166.3,492.564 1145.5,491.692 C1129.5,491.022 1120.293,488.734 1108.5,482.498 C1098.3,477.105 1095.443,477.105 1090.305,482.5 C1074.244,499.364 1119.2,518.827 1163.2,514.059 C1182.2,512 1194.331,507.513 1203.1,499.302 C1210.15,492.701 1212.5,486.6 1212.5,474.9 C1212.5,466.3 1212.215,464.841 1209.495,459.5 C1204.098,448.903 1192.4,442.602 1173.5,440.114 C1163.5,438.798 1138.714,437.07 1129.5,437.047 C1117.1,437.015 1111,434 1111,427.9 C1111,416.704 1125.1,411.356 1152.3,412.237 C1168.5,412.761 1175.422,414.516 1185.3,420.603 C1189.3,423.068 1192.917,424.45 1196.15,424.75 C1200.65,425.168 1201.252,424.948 1204.5,421.7 C1214.376,411.824 1202,398.659 1176.5,391.915 C1170.45,390.316 1164.6,389.706 1152.5,389.414 Z M2119.571,395.5 C2116.252,387.6 2103.194,386.62 2098.262,393.9 C2096.676,396.24 2096.45,400.35 2096,435.05 L2096,435.05 L2095.5,473.6 L2058.5,433.9 C2038.182,412.1 2019.719,393.028 2017.55,391.6 C2014.648,389.69 2012.3,389 2008.7,389 C2004.5,389 2003.314,389.486 2000.4,392.4 L2000.4,392.4 L1997,395.8 L1997,461.062884 C1997.01163,506.787107 1997.15806,507.90206 1999.039,510.3 C2003.855,516.439 2015.154,516.1 2019.052,509.7 L2019.052,509.7 L2019.16022,509.519352 C2019.19561,509.459229 2019.23032,509.399105 2019.26437,509.338707 L2019.36453,509.156409 C2019.38089,509.125796 2019.39709,509.095046 2019.41313,509.064123 L2019.50745,508.876246 C2020.84731,506.11406 2020.98946,501.526686 2020.99937,472.422109 L2020.99997,469.322903 L2020.99997,469.322903 L2021,468.25 L2021,468.25 L2021.00086,465.748864 C2021.01446,445.8976 2021.1888,430 2021.4,430 C2022.024,430 2026.651,434.9 2063.89,475 C2080.977,493.4 2096.713,509.759 2098.8,511.293 C2103.7,514.895 2109.586,515.728 2114.3,513.486 C2120.62679,510.47745 2120.98058,511.087642 2121.00005,463.569876 L2121.00005,460.436924 C2121.00005,459.903465 2121.00005,459.364312 2121.00005,458.819402 L2121.00005,452 C2121.00005,451.564 2121.00005,451.131349 2121.00005,450.702021 L2121.00005,448.165722 C2120.98381,407.800104 2120.70881,398.20824 2119.571,395.5 Z M1962,391 L1914.75,391.1 C1888.55,391.155 1866.052,391.623 1864.25,392.15 C1862.135,392.768 1860.039,394.55 1858.25,397.25 L1858.25,397.25 L1855.5,401.4 L1855.25,453.95 C1855.19192,466.142 1855.15106,475.514883 1855.14873,482.762324 L1855.14873,484.530306 C1855.16202,505.799194 1855.55822,507.41118 1856.962,509.7 C1860.702,515.8 1871.525,516.462 1876.588,510.9 L1876.588,510.9 L1876.6903,510.785026 C1876.79081,510.669233 1876.88601,510.550544 1876.97626,510.425026 L1877.06488,510.297085 C1878.36991,508.33945 1878.5914,504.55 1879,485.65 L1879,485.65 L1879.5,462.5 L1944.2,461.5 L1946.6,458.7 C1948.412,456.586 1949,454.7 1949,451 C1949,447.3 1948.412,445.414 1946.6,443.3 L1946.6,443.3 L1944.2,440.5 L1879.5,439.5 L1879.2,428.25 C1879.024,421.65 1879.355,416.173 1880,415 L1880,415 L1880.06463,414.88538 C1880.07551,414.866651 1880.08646,414.848108 1880.09753,414.829749 L1880.16563,414.721789 C1881.2055,413.152711 1883.76763,413.012422 1914.8636,413.00096 L1920.37946,413.000017 L1920.37946,413.000017 L1921.55,413 L1962,413 L1965.2,410.15 C1968.038,407.623 1968.4,406.7 1968.4,402 C1968.4,397.3 1968.038,396.377 1965.2,393.85 L1965.2,393.85 L1962,391 Z M2265.2,391 L2216.85,391.1 C2193.176,391.14895 2172.23871,391.510779 2166.71698,391.938749 L2166.36823,391.967699 C2165.88056,392.011264 2165.55345,392.05545 2165.4,392.1 C2163.7,392.594 2161.529,393.858 2160.593,394.9 C2156.43752,399.52399 2156.11621,402.140099 2156.10067,447.196416 L2156.10067,456.159181 C2156.11791,504.90507 2156.50197,506.63587 2163,510.447 C2163.06738,510.48652 2163.13418,510.525285 2163.20078,510.563311 L2163.4003,510.67519 C2163.46684,510.711756 2163.53354,510.7476 2163.60076,510.782738 L2163.80435,510.886053 C2166.96128,512.438283 2171.996,512.53308 2214.5,512.787 C2266.2,513.096 2266.936,513.031 2269.585,507.9 C2273.199,500.9 2270.2,492.976 2263.2,491.029 C2260.957,490.405 2244.05,490 2220.25,490 L2220.25,490 L2181,490 L2180.45,487.75 C2180.24729,486.919612 2180.12939,483.828676 2180.12441,479.974249 L2180.12475,479.265364 C2180.12769,477.95154 2180.14336,476.562965 2180.17281,475.155085 L2180.19025,474.385569 L2180.19025,474.385569 L2180.2,474 L2180.5,462.5 L2215.2,462.021 C2253.7,461.49 2252.965,461.631 2254.91,454.4 C2256.039,450.2 2254.738,445.021 2251.9,442.423 C2249.948,440.636 2247.35,440.465 2215.15,440 L2215.15,440 L2180.5,439.5 L2180.2,428.25 C2180.024,421.65 2180.354,416.173 2181,415 L2181,415 L2181.06464,414.885265 C2181.07552,414.866518 2181.08648,414.847957 2181.09756,414.82958 L2181.16577,414.721519 C2182.20809,413.151002 2184.81622,413.012207 2216.77724,413.00094 L2222.44679,413.000017 L2222.44679,413.000017 L2223.65,413 L2265.2,413 L2268.1,410.1 C2270.554,407.646 2271,406.4 2271,402 C2271,397.6 2270.554,396.354 2268.1,393.9 L2268.1,393.9 L2265.2,391 Z M1567.55,389.25 C1562.25,388.82 1561.84,388.96 1558.45,392.35 L1558.45,392.35 L1554.9,395.9 L1555.2,449.2 C1555.474,497.9 1555.652,502.776 1557.26,505.7 C1561.037,512.567 1560.5,512.497 1612,512.762 C1656.8,512.991 1658.617,512.928 1661.7,511.034 C1668,507.162 1668.286,496.479 1662.2,492.337 C1659.729,490.656 1656.1,490.458 1619.5,490 L1619.5,490 L1579.5,489.5 L1578.5,395 L1575.8,392.35 C1573.708,390.297 1571.85,389.599 1567.55,389.25 Z M2482.3905,391.203544 L2481.28388,391.203544 C2469.56937,391.208916 2466.66922,391.536571 2464.19502,392.511939 L2463.96759,392.603822 L2463.96759,392.603822 L2463.74112,392.699441 C2463.62788,392.748194 2463.51445,392.79837 2463.4,392.85 C2460.6,394.113 2458.698,395.937 2457.4,398.6 C2457.32908,398.7456 2457.26076,398.890592 2457.19493,399.03748 L2457.09804,399.259546 C2455.60888,402.770664 2455.4632,408.02 2455.2,447.5 C2455.15545,454.196 2455.1327,460.726809 2455.12971,466.749902 L2455.12971,469.392289 C2455.13701,484.380985 2455.27161,495.72246 2455.5,497.7 C2455.835,500.6 2457.088,504.36 2458.334,506.2 C2462.39672,512.2 2462.86704,512.48608 2496.16424,512.49947 L2502.76769,512.49947 C2539.12174,512.481321 2542.22356,511.9561 2557,504.807 C2567.9,499.532 2578.237,489.582 2582.772,480 C2591.716,461.1 2590.551,435.465 2580,419 C2572.878,407.888 2558.4,398.016 2542.5,393.43 C2537.457,391.976 2531,391.644 2502,391.35 C2493.654,391.26524 2487.29645,391.209616 2482.3905,391.203544 L2482.3905,391.203544 Z" id="path-1"></path>
        <path d="M124.29556,7.14509828 C129.75956,10.3510983 137.13456,18.3300983 140.17956,24.3300983 C144.74956,33.3340983 146.53856,47.3300983 144.48756,58.0300983 C141.64956,72.8300983 136.93756,80.1220983 127.09556,84.9450983 C121.60256,87.6370983 119.49556,88.1340983 113.49556,88.1580983 C102.19556,88.2030983 92.5295597,82.7070983 87.7685597,73.5300983 C85.0695597,68.3300983 85.3955597,66.0300983 89.3955597,62.0300983 C94.2605597,57.1650983 97.4135597,57.6300983 100.91056,63.7300983 C103.76156,68.7060983 108.59556,71.7300983 113.69556,71.7300983 C122.49956,71.7300983 126.93856,65.0300983 127.67456,50.6300983 C128.44756,35.5300983 123.64156,26.1860983 112.19556,20.5380983 C106.761991,17.8563336 105.100963,17.3971575 98.3776079,17.3768472 L97.4911263,17.376501 C97.1860119,17.3770887 96.8710499,17.3783336 96.5455597,17.3800983 C89.7455597,17.4170983 85.8545597,17.9840983 81.3955597,19.5890983 C49.9795597,30.8930983 22.2835597,68.2300983 17.8695597,105.230098 C15.1615597,127.930098 20.7365597,148.307098 31.9955597,156.861098 C40.0255597,162.962098 43.7955597,164.230098 53.8955597,164.230098 C62.1955597,164.230098 64.1405597,163.880098 69.2955597,161.460098 C80.1715597,156.353098 93.9505597,143.530098 107.15356,126.230098 C111.88456,120.030098 112.91856,119.196098 116.19556,118.930098 C119.09556,118.695098 120.43656,119.171098 122.39556,121.130098 C123.79556,122.530098 124.89556,124.554098 124.89556,125.730098 C124.89556,127.335098 114.70256,167.130098 111.21856,179.130098 C110.78256,180.630098 110.99556,180.770098 112.49556,179.969098 C116.44556,177.860098 128.07556,166.330098 134.22256,158.430098 C147.76056,141.030098 153.34156,131.777098 156.84156,120.930098 C160.90756,108.330098 168.29656,95.6020983 176.81256,86.5300983 C181.76856,81.2500983 185.09556,78.7800983 191.69556,75.4800983 C199.78256,71.4360983 200.69556,71.2130983 210.49556,70.8790983 C222.49556,70.4700983 229.11656,72.0180983 236.49556,76.9600983 C252.79556,87.8760983 253.89756,116.795098 238.59556,132.067098 C227.85406,142.786818 203.48917,149.595939 179.90983,148.513324 L179.19556,148.478098 L170.69556,148.030098 L171.10756,153.630098 C172.20456,168.543098 183.59556,178.526098 200.59556,179.472098 C211.49556,180.079098 219.99856,177.521098 229.69556,170.717098 C237.28456,165.392098 242.89956,159.230098 252.28256,145.930098 C259.35756,135.901098 261.73456,130.630098 270.85856,104.730098 C278.53856,82.9300983 283.57156,70.0060983 285.18956,67.9300983 C287.45656,65.0210983 298.79756,67.8300983 300.93356,71.8300983 C301.46856,72.8300983 301.60656,74.3860983 301.24556,75.3300983 C300.90156,76.2300983 301.01856,76.8180983 301.49556,76.5800983 C301.99356,76.3310983 304.89556,74.9220983 307.99556,73.4250983 C326.29556,64.5860983 346.67556,69.6520983 354.27656,84.9300983 C359.14241,94.7112983 357.319077,105.021752 344.262652,140.642897 L343.86356,141.730098 L343.505586,142.70406 L343.32638,143.19169 L343.32638,143.19169 L342.967864,144.167331 C342.848381,144.492507 342.72895,144.817563 342.609661,145.142254 L342.25231,146.114986 C338.863235,155.340879 335.66256,164.071144 334.73156,166.630098 C332.22256,173.530098 332.51156,179.139098 335.39556,179.542098 C339.67856,180.139098 354.51756,164.130098 368.31056,144.030098 C375.03856,134.225098 377.34056,129.530098 386.80056,106.330098 C401.11056,71.2300983 399.80656,73.2490983 408.39556,72.9080983 C413.29556,72.7130983 415.98056,73.0650983 417.34556,74.0800983 C419.25356,75.4990983 419.21356,75.7300983 415.49656,84.8300983 C395.11556,134.730098 387.07856,157.091098 386.24356,166.230098 C385.76856,171.430098 385.99156,172.603098 387.91956,175.030098 C392.25256,180.485098 398.51956,177.730098 408.16656,166.130098 C418.81056,153.330098 427.60056,139.541098 430.35156,131.330098 C439.39756,104.330098 459.54856,80.7170983 480.39556,72.6860983 C489.39556,69.2190983 503.25956,69.3050983 510.89556,72.8750983 C518.49556,76.4280983 522.35756,79.9240983 524.54256,85.2300983 C525.57156,87.7300983 526.63956,89.7300983 526.94556,89.7300983 C527.25756,89.7300983 528.47056,88.4300983 529.74556,86.7300983 C531.58156,84.2830983 532.69556,83.7300983 535.79556,83.7300983 C541.09556,83.7300983 545.29756,87.0450983 544.54256,90.6300983 C544.250797,92.0164542 541.326047,99.2175961 537.934225,106.917923 L537.57556,107.730098 C534.9382,113.687098 531.76296,121.904865 528.756347,130.299432 L528.270378,131.661934 L527.788035,133.025561 C527.654992,133.403252 527.522444,133.780846 527.390454,134.158153 L526.996222,135.289025 C526.930818,135.477297 526.865568,135.665451 526.800483,135.853462 L526.411997,136.979629 C522.290457,148.969807 518.9046,160.182896 518.35256,164.430098 C516.92256,175.430098 520.53556,181.397098 526.99556,178.705098 C534.15656,175.721098 543.92056,165.330098 557.69956,146.030098 C563.45156,137.972098 565.58156,133.830098 569.67956,122.730098 C572.066196,116.266462 578.188539,100.415863 584.684959,83.7615774 L585.17284,82.5111332 C585.661316,81.2594504 586.151425,80.0044538 586.641746,78.7497645 L587.600476,76.2975448 C588.108331,74.9991391 588.615421,73.7035992 589.120169,72.4149566 L589.624077,71.1287625 C597.336901,51.4469508 604.375135,33.7027343 605.04656,32.4300983 C605.841832,30.9210437 607.147044,30.6824976 613.819325,30.9166108 L614.19556,30.9300983 L622.39556,31.2300983 L622.29556,34.2300983 C622.24056,35.8770983 617.79756,48.7300983 612.44256,62.7300983 C601.92556,90.2300983 584.11656,138.404098 577.80456,156.430098 C572.37656,171.930098 572.61756,178.730098 578.59556,178.730098 C582.42056,178.730098 586.00056,176.330098 592.91556,169.130098 C600.28456,161.456098 606.08156,154.030098 613.91356,142.230098 C623.27056,128.130098 626.40656,126.186098 632.29556,130.832098 C636.53956,134.181098 635.87056,138.830098 629.67656,149.030098 C616.37856,170.930098 600.30856,188.912098 588.99556,194.550098 C581.19556,198.437098 572.97256,198.884098 566.19556,195.787098 C561.499481,193.642 556.460266,187.382139 555.387153,182.425867 L555.32756,182.130098 L554.69556,178.730098 L547.69556,185.335098 C538.69556,193.827098 531.75156,197.130098 522.89556,197.130098 C517.49556,197.130098 515.42256,196.621098 511.49556,194.333098 C507.35756,191.922098 502.16356,185.730098 500.58956,181.330098 C500.35856,180.685098 498.99556,181.322098 497.29556,182.869098 C493.42756,186.388098 484.59556,191.815098 477.89556,194.789098 C473.230381,196.859455 470.976714,197.217639 461.897608,197.229772 L460.439069,197.229243 C451.29615,197.211738 449.77956,196.906098 445.29556,194.546098 C438.79556,191.125098 431.39456,182.913098 429.14756,176.630098 C428.18256,173.930098 427.10356,171.730098 426.74556,171.730098 C426.38156,171.730098 424.46956,173.930098 422.39956,176.730098 C414.73456,187.102098 405.19556,193.535098 394.29556,195.686098 C382.023395,198.107871 371.286087,191.652547 367.945537,179.899114 L367.84356,179.530098 L366.79556,175.630098 L358.09456,184.530098 C347.63356,195.230098 342.40656,198.060098 332.89556,198.176098 C324.39556,198.280098 318.82956,195.304098 315.78956,189.030098 C311.45456,180.084098 313.34356,172.130098 332.31856,119.430098 C339.33956,99.9300983 338.53256,91.7270983 329.29556,88.6980983 C321.73256,86.2180983 311.79556,89.8840983 302.79556,98.4730983 C291.63656,109.123098 284.68156,122.630098 269.44956,163.230098 C264.08456,177.530098 258.79556,190.693098 257.69556,192.480098 C255.823881,195.521455 255.516205,195.719341 249.578804,195.729596 L248.57104,195.729308 C239.355914,195.683872 237.677272,193.66465 240.49056,186.230098 C240.90056,185.145098 239.19556,185.784098 235.19556,188.212098 C226.26356,193.635098 215.19556,196.850098 203.39556,197.450098 C186.99556,198.284098 176.23856,194.736098 166.69556,185.343098 C161.79556,180.521098 154.89556,168.350098 154.89556,164.530098 C154.89556,161.285098 153.16156,161.830098 150.12756,166.030098 C140.91215,178.785508 125.123668,193.660671 110.143843,203.729685 L109.39556,204.229098 L101.39556,209.530098 L98.0325597,218.830098 C86.4625597,250.830098 69.2805597,275.898098 53.4955597,283.808098 C41.8955597,289.621098 28.8565597,287.152098 22.4515597,277.930098 C19.7135597,273.987098 19.3995597,272.730098 19.4325597,265.830098 C19.4805597,256.030098 21.5855597,249.950098 28.1935597,240.530098 C38.4485597,225.912098 52.7955597,214.133098 74.8955597,202.187098 C81.7955597,198.457098 87.5295597,195.317098 87.6955597,195.179098 C88.2955597,194.677098 96.9435597,165.478098 96.5955597,165.130098 C96.4295597,164.964098 93.3955597,166.868098 89.7955597,169.398098 C76.4435597,178.782098 65.1955597,182.124098 48.7955597,181.579098 C38.9955597,181.253098 37.7825597,180.976098 30.5955597,177.422098 C17.2985597,170.847098 8.39655972,159.530098 2.91255972,142.230098 C-0.263440283,132.209098 -0.973440283,110.430098 1.43555972,96.9300983 C7.07555972,65.3300983 24.6605597,35.9080983 48.8955597,17.5230983 C57.4415597,11.0400983 73.6955597,3.15509828 82.3955597,1.27309828 C96.1955597,-1.71390172 113.27956,0.680098287 124.29556,7.14509828 Z M61.1415201,232.621958 L60.4949213,233.145934 L60.4949213,233.145934 L59.6610356,233.828097 C53.6923271,238.736864 47.9349797,244.034098 45.6585597,247.130098 C38.7455597,256.530098 36.6745597,266.112098 41.2955597,267.309098 C42.7225597,267.678098 45.1955597,267.217098 47.3955597,266.172098 C50.9730755,264.472098 58.5720623,255.142114 65.1289685,244.988436 L65.7046858,244.090559 C68.0911664,240.34194 70.316665,236.509046 72.1295597,232.930098 C74.9655597,227.330098 77.1155597,222.575098 76.8955597,222.387098 C75.9211534,221.552198 68.5765437,226.621814 61.1415201,232.621958 L61.1415201,232.621958 Z M489.29556,87.6100983 C469.62156,92.6490983 449.26256,120.230098 444.40256,148.430098 C439.86956,174.730098 454.63356,186.877098 476.89556,175.164098 C489.27656,168.649098 499.03056,156.930098 506.38656,139.730098 C512.97256,124.330098 514.33956,113.915098 511.32256,102.130098 C509.68456,95.7300983 507.69456,92.3890983 503.79556,89.4910983 C500.96456,87.3870983 493.79556,86.4570983 489.29556,87.6100983 Z M192.69556,94.5330983 C184.69556,101.723098 174.89556,119.835098 174.89556,127.430098 C174.89556,129.350098 175.59556,129.716098 180.39556,130.303098 C190.19556,131.501098 211.15956,128.661098 217.79556,125.237098 C222.59556,122.759098 229.02356,116.593098 230.52156,113.030098 C233.50556,105.930098 231.26556,95.0620983 225.79556,90.1050983 C224.47556,88.9090983 221.59556,87.4370983 219.39556,86.8350983 C210.29556,84.3440983 201.07556,87.0020983 192.69556,94.5330983 Z" id="path-3"></path>
        <path d="M253.398071,0 C256.998071,0 263.138071,2.171 264.143071,3.8 C264.441293,4.28302222 260.678218,15.1984553 255.73678,28.2097186 L255.398071,29.1 C255.024388,30.0804878 254.650411,31.0621267 254.27772,32.0407465 L253.905517,33.0182055 C250.065058,43.1050237 246.418261,52.7210397 244.709679,57.2649679 L244.475471,57.8884231 C244.255272,58.4752097 244.077693,58.9504268 243.948071,59.3 L243.948071,59.3 L241.798071,65.1 L246.098071,62.589 C251.289071,59.558 261.498071,57.077 268.898071,57.049 C277.698071,57.015 284.229071,59.453 289.798071,64.849 C293.826071,68.753 294.780071,70.4 295.732071,75.1 C297.482071,83.739 295.781071,91.3 284.620071,124.5 C271.846071,162.5 271.422071,167.453 281.098071,165.645 C285.712071,164.783 293.439071,157.8 302.613071,146.2 C315.967071,129.316 318.704071,124.6 325.307071,107.1 C328.741411,97.998 334.054567,84.2375668 339.461982,70.3665294 L340.339405,68.1169207 C349.262537,45.2506476 358.179681,22.75192 359.094071,21 C360.303071,18.683 360.998071,18.478 368.598071,18.2 C375.098071,17.962 376.922071,18.211 377.398071,19.4 C377.729071,20.227 373.198071,33.6 367.302071,49.2 C342.888071,113.8 329.182071,151.892 328.226071,157.8 C327.077071,164.9 330.449071,167.573 337.298071,164.991 C342.612071,162.988 352.776071,151.8 366.179071,133.2 C368.266071,130.304 371.334071,124 372.944071,119.3 C382.568071,91.2 402.162071,68.109 423.298071,59.961 C432.298071,56.491 446.162071,56.575 453.798071,60.145 C461.398071,63.698 465.258071,67.194 467.435071,72.5 C469.529071,77.6 470.202071,77.93 471.925071,74.7 C473.582071,71.592 474.698071,71 478.898071,71 C483.898071,71 488.172071,74.45 487.445071,77.9 C487.153309,79.2863559 484.228558,86.4874978 480.836737,94.1878251 L480.478071,95 C477.413031,101.923 473.618746,111.899439 470.205689,121.658239 L469.732034,123.01819 C465.414929,135.46543 461.806021,147.3077 461.229071,151.7 C460.284071,158.9 461.360071,163.634 464.398071,165.645 C466.715071,167.179 467.198071,167.165 470.998071,165.45 C473.222071,164.447 477.798071,160.9 480.998071,157.7 C489.698071,149 504.584071,128.631 505.847071,123.7 C511.275071,102.5 533.537071,45.822 542.455071,30.5 C547.925071,21.1 556.658071,10.178 561.198071,7.058 C577.198071,-3.94 594.783071,-1.366 601.114071,12.9 C607.381071,27.022 601.469071,56.6 586.203071,87.5 C573.704071,112.8 554.250071,134.474 535.598071,143.88 C532.998071,145.191 530.798071,146.667 530.798071,147.1 C530.798071,148.356 538.298071,153.89 542.498071,155.733 C544.920071,156.796 549.198071,157.418 554.298071,157.45 C561.098071,157.493 563.153071,157.078 567.998071,154.688 C575.029071,151.22 580.755071,145 591.464071,129.2 C597.768071,119.9 600.309071,115.085 602.760071,107.8 C610.127071,85.9 622.881071,69.661 638.598071,62.17 C645.619071,58.824 647.198071,58.469 656.498071,58.15 C668.398071,57.741 675.035071,59.295 682.398071,64.213 C692.054071,70.663 696.966071,83.9 694.786071,97.6 C691.210071,120.073 674.998071,131.738 642.598071,135.152 C636.598071,135.784 628.349071,136.075 624.248071,135.8 L624.248071,135.8 L616.798071,135.3 L616.798071,139.45 C616.798071,141.705 617.512071,145.7 618.362071,148.2 C625.214071,168.353 653.798071,173.33 675.398071,158.13 C683.745071,152.256 688.925071,146.4 698.956071,131.5 C700.886571,128.6325 702.337946,126.47375 703.642212,124.256406 L703.952581,123.722726 C707.698512,117.206367 710.416601,109.667 720.373071,82 C728.902071,58.3 730.660071,54.634 733.698071,54.2 C740.298071,53.257 748.569071,57.993 747.321071,62 C746.756071,63.813 747.298071,63.717 753.098071,60.979 C762.698071,56.447 770.015071,55.435 779.398071,57.341 C787.898071,59.069 793.220071,62.061 797.287071,67.4 C806.053071,78.909 804.474071,90 787.776071,134.2 C776.971071,162.8 776.273071,169.914 784.698071,165.536 C789.353071,163.117 804.701071,145.2 814.795071,130.4 C819.774071,123.1 824.513071,116.925 825.398071,116.585 C830.367071,114.673 836.798071,118.8 836.798071,123.9 C836.798071,130.096 817.337071,158.3 802.986071,172.9 C793.648071,182.4 787.992071,185.334 778.798071,185.446 C770.298071,185.55 764.731071,182.574 761.689071,176.3 C757.309071,167.267 759.410071,158.1 776.722071,110.7 C785.378071,87 785.034071,79.165 775.198071,75.952 C767.667071,73.492 757.698071,77.138 748.798071,85.607 C737.319071,96.531 730.152071,110.4 715.264071,150.5 C702.678071,184.4 703.581071,183 694.298071,183 C685.298071,183 683.592071,180.913 686.451071,173.4 C686.965071,172.048 686.198071,172.255 682.698071,174.412 C668.016071,183.463 647.698071,187.361 632.898071,183.967 C618.007071,180.551 606.612071,169.8 601.562071,154.4 L601.562071,154.4 L599.398071,147.8 L597.388071,150.7 C592.952071,157.1 580.197071,168.681 574.798071,171.211 C563.798071,176.366 550.807071,177.447 541.098071,174.015 C537.998071,172.919 535.216071,172 534.998071,172 C534.783071,172 534.898071,173.2 535.248071,174.6 C535.590162,175.970291 536.462481,182.964153 537.207329,190.271678 L537.291071,191.1 C539.436071,212.5 537.406071,227.378 530.210071,243 C524.130071,256.2 515.048071,263 503.498071,263 C487.294071,263 477.177071,248.4 479.244071,228 C479.899071,221.542 483.527071,204.6 488.817071,183.3 L488.817071,183.3 L491.598071,172.1 L486.998071,175.982 C472.698071,188.049 455.047071,187.31 446.810071,174.3 C445.227071,171.8 443.715071,169.198 443.498071,168.6 C443.264071,167.955 441.898071,168.592 440.198071,170.139 C436.330071,173.658 427.498071,179.085 420.798071,182.059 C416.048071,184.167 413.798071,184.5 404.298071,184.5 L403.34158,184.499144 C394.198661,184.481637 392.682071,184.175934 388.198071,181.814 C381.798071,178.444 374.424071,170.292 372.083071,164 C371.116071,161.4 369.931071,159.154 369.498071,159.1 C369.060071,159.045 366.236071,161.9 363.265071,165.4 C357.152071,172.6 347.410071,180.349 340.998071,183.111 C332.898071,186.6 321.768071,185.105 315.998071,179.752 C313.098071,177.062 309.798071,170.86 309.798071,168.1 C309.798071,165.008 308.717071,165.5 303.218071,171.1 C289.959071,184.6 275.560071,188.972 263.898071,183.038 C254.118071,178.061 251.460071,165.4 256.773071,149.1 C257.657191,146.387761 260.868439,137.130715 264.279707,127.447287 L264.627222,126.4613 L264.627222,126.4613 L265.149994,124.979935 C265.324395,124.486117 265.498847,123.992537 265.673071,123.5 C276.426071,93.1 279.065071,83.834 277.860071,80.7 C276.304071,76.655 271.498071,74.656 264.798071,75.269 C258.236071,75.869 255.198071,77.263 247.898071,83.023 C235.867071,92.517 222.231071,116.7 209.287071,151.5 C196.008071,187.2 198.114071,184 187.898071,184 C178.098071,184 176.808071,182.921 179.169071,176.7 C181.370071,170.9 181.214071,170.589 177.498071,173.381 C168.101071,180.441 155.698071,184.265 141.798071,184.388 C126.298071,184.525 113.760071,180.138 106.398071,172 C102.417071,167.6 98.7980712,160.362 98.7980712,156.8 C98.7980712,155.664789 97.4302474,156.514263 93.8790276,160.035923 L93.4595355,160.454167 C92.2432575,161.673011 90.7902684,163.180282 89.0720712,165 C72.3580712,182.7 64.6820712,187.011 49.7980712,187.058 C40.9980712,187.086 32.9990712,184.524 26.4980712,179.595 C21.4980712,175.805 17.7980712,170.618 17.7980712,167.4 C17.7980712,164.709 24.7980712,159 28.0980712,159 C29.2760712,159 31.9980712,160.753 34.2980712,162.993 C39.3980712,167.96 43.3760712,168.885 47.0980712,165.968 C50.9120712,162.978 53.6440712,157.1 55.3570712,148.2 C57.9920712,134.5 57.1220712,77.661 54.3390712,81.7 C53.6775284,82.6588 49.1639104,90.9084212 44.2248845,100.179475 L43.7880712,101 C30.2740712,126.4 21.0730712,141.934 17.0130712,146.2 C13.8170712,149.56 12.8480712,150 8.64807123,150 C4.74807123,150 3.53407123,149.535 1.86707123,147.4 C-0.876928771,143.888 -0.765928771,143.1 3.33707123,137 C6.55519123,132.21496 16.901576,114.063869 27.5672461,94.5732732 L28.3117951,93.2114422 C28.9325415,92.0750239 29.5538319,90.9350233 30.1743281,89.7938038 L31.2900747,87.7388027 L31.2900747,87.7388027 L32.0320965,86.3688519 C32.2791244,85.9123344 32.5258112,85.456 32.7720712,85 C42.8720712,66.3 47.6220712,59.004 50.3980712,57.929 C51.7140712,57.42 55.5980712,57.304 58.9980712,57.672 C66.3980712,58.475 70.0460712,61.339 71.6460712,67.6 C72.6048212,71.3524 73.6519886,87.803488 74.2164144,103.928128 L74.2721273,105.566289 C74.6231545,116.200426 74.7547912,126.499 74.5020712,132.7 C74.4583542,133.769811 74.4041884,134.861009 74.3412692,135.956594 L74.2852344,136.896346 C73.8591727,143.789922 73.1064109,150.664981 72.4480712,153.3 C70.9980712,159.1 70.9980712,159.1 72.9980712,157.34 C74.850559,155.709902 79.838815,149.660491 84.7814981,143.249269 L85.4119863,142.429163 C88.8756129,137.911205 92.2500346,133.3 94.4340712,130 C97.5780712,125.25 100.440071,119.2 102.239071,113.5 C111.868071,83 132.338071,61.578 155.398071,57.87 C171.498071,55.281 186.077071,63.038 190.039071,76.3 C191.679071,81.791 189.317071,92.9 183.871071,105.3 C178.908071,116.6 173.892071,123 169.998071,123 C165.598071,123 160.069071,121.07 159.402071,119.3 C159.048071,118.362 161.130071,112.9 164.434071,106.1 C173.909071,86.6 174.968071,81.334 170.298071,76.953 C166.698071,73.577 156.398071,73.5 149.698071,76.801 C133.107071,84.974 115.798071,117.6 115.798071,140.7 C115.798071,160.234 125.998071,169.009 145.598071,166.336 C155.798071,164.945 162.953071,162.052 170.998071,156.063 C178.640071,150.374 186.211071,141.6 195.299071,127.9 C201.841071,118.039 203.510071,113.9 227.533071,48 C236.574071,23.2 244.596071,4.713 247.398071,2.222 C248.969071,0.825 251.198071,0 253.398071,0 Z M512.998071,163.8 C512.386928,163.188857 509.882093,170.874267 507.690515,179.385484 L507.500786,180.12749 C507.40637,180.499351 507.312667,180.872364 507.219859,181.245915 L507.035489,181.993552 L507.035489,181.993552 L506.853826,182.741531 C506.793759,182.990793 506.734197,183.239931 506.675194,183.488761 L506.499915,184.23415 C506.037259,186.218429 505.613806,188.171429 505.257071,190 C505.193513,190.325465 505.124314,190.676095 505.050023,191.049274 L504.894817,191.82492 C504.302036,194.773507 503.455211,198.840888 502.571434,202.995168 L502.208379,204.696878 C501.682577,207.154346 501.154211,209.593023 500.668071,211.8 C497.320071,227 496.996071,234.981 499.523071,240 C502.041071,245 505.109071,245.135 509.898071,240.455 C517.645071,232.885 520.299071,221.5 519.515071,199.2 C519.107071,187.6 518.439071,182.391 516.348071,174.5 C514.891071,169 513.383071,164.185 512.998071,163.8 Z M446.698071,76.761 C443.866071,74.657 436.698071,73.725 432.198071,74.875 C418.501071,78.377 404.544071,92.2 395.218071,111.5 C386.907071,128.7 384.209071,146.438 388.449071,156 C393.685071,167.807 405.098071,170.178 419.698071,162.492 C432.074071,155.977 441.976071,144.1 449.289071,127 C455.875071,111.6 457.242071,101.185 454.225071,89.4 C452.587071,83 450.597071,79.659 446.698071,76.761 Z M579.098071,20.0193252 C569.846071,20.071 559.180071,33.8 549.979071,57.5 C533.441071,100.1 523.540071,127 524.398071,127 C524.731071,127 528.198071,125.331 532.198071,123.244 C551.044071,113.414 568.919071,87.3 580.827071,52.2 C585.814071,37.5 587.137071,26.619 584.437071,22.5 C583.152071,20.541 581.998071,20.004 579.098071,20.0193252 Z M666.098071,74.44 C657.398071,71.326 647.235071,74.049 638.598071,81.808 C630.598071,88.996 620.798071,107.105 620.798071,114.7 C620.798071,116.634 621.498071,116.988 626.598071,117.625 C634.098071,118.563 656.151071,115.824 662.098071,113.216 C667.698071,110.761 674.143071,105.004 676.223071,100.6 C679.387071,93.9 677.259071,82.349 671.998071,77.669 C670.837071,76.636 668.198071,75.192 666.098071,74.44 Z" id="path-5"></path>
        <path d="M7.45011344,1.66564378 C11.6671134,-0.45935622 13.4501134,-0.52135622 17.7501134,1.30964378 C31.1581134,7.01764378 28.0501134,26.8956438 13.7501134,26.8956438 C5.25011344,26.8956438 0.158113443,22.0066438 0.00311344304,13.6956438 C-0.099886557,8.19564378 2.35211344,4.23464378 7.45011344,1.66564378 Z" id="path-7"></path>
        <path d="M280.346941,0 C296.21838,0.008564736 311.525542,0.289959936 319.228582,0.850599936 C390.528582,6.03959994 451.753582,24.0045999 494.728582,52.3455999 C520.528582,69.3605999 533.018582,83.4015999 538.202582,101.2196 C540.559582,109.3196 539.854582,124.9196 536.766582,133.0196 C530.241582,150.1326 512.828582,160.9426 491.728582,160.9796 C473.887582,161.0106 463.128582,157.2166 443.028582,143.8086 C407.826582,120.3246 370.428582,107.7506 321.228582,102.8556 C281.528582,98.9055999 225.385582,101.4396 188.228582,108.8596 C144.928582,117.5066 118.356582,133.3076 109.593582,155.6196 C106.413582,163.7196 106.392582,178.8716 109.552582,186.9196 C114.494582,199.5086 130.028582,208.3446 154.228582,212.3306 C164.085582,213.9536 188.228582,215.2466 237.228582,216.7756 C293.728582,218.5386 377.410582,225.6766 408.628582,231.3956 C510.528582,250.0666 557.350582,293.2056 562.666582,373.3196 C567.258582,442.5196 537.908582,492.5936 473.928582,524.7116 C422.275582,550.6416 350.728582,563.2186 264.728582,561.4866 C215.328582,560.4916 171.324582,554.6346 127.828582,543.2656 C80.1285816,530.7986 41.1535816,511.4746 19.2235816,489.4196 C6.32758161,476.4506 0.728581612,464.2196 0.728581612,449.0196 C0.728581612,441.8196 3.00958161,432.0676 6.10758161,426.0196 C13.9655816,410.6786 32.1285816,399.8446 49.9285816,399.8796 C65.3065816,399.9106 75.7285816,403.8316 95.0285816,416.8506 C118.668582,432.7966 146.828582,443.4596 186.228582,451.3856 C229.720582,460.1346 273.328582,462.4826 323.228582,458.7626 C369.628582,455.3046 403.364582,447.0146 426.228582,433.4546 C436.328582,427.4646 447.727582,416.2226 452.018582,408.0196 C463.579582,385.9196 461.710582,363.6946 446.946582,347.7196 C440.281582,340.5086 435.428582,337.6526 422.528582,333.3526 C399.877582,325.8026 378.428582,323.3066 323.328582,321.8086 C246.428582,319.7176 172.273582,315.0786 138.228582,310.2296 C116.828582,307.1816 81.6965816,297.6536 68.1285816,291.2166 C58.5225816,286.6606 38.3025816,271.6196 28.4735816,261.7196 C22.3735816,255.5756 19.9105816,252.1196 16.2865816,244.6196 C-2.04141839,206.6876 -5.16041839,157.6196 8.25158161,118.2196 C31.3915816,50.2475999 111.328582,9.02859994 235.728582,0.924599936 C244.928582,0.325599936 261.791582,0.015099936 278.360582,0 L280.346941,0 Z" id="path-9"></path>
        <path d="M24.7,0 C24.866,0 29.143,7.95 34.25,17.75 C34.4893906,18.209375 34.7295173,18.6698508 34.96995,19.1306135 L35.4510959,20.0522801 C40.1838689,29.114353 44.9240781,38.0774844 46.4,40.75 L46.4,40.75 L49.3,46 L0,46 L7.7,31.25 C9.10966667,28.55 10.6605556,25.5978889 12.1934074,22.6939259 L12.7334057,21.671486 C15.6066359,16.2343506 18.3495686,11.0929804 19.9,8.25 C22.354,3.75 24.536,0 24.7,0 Z" id="path-11"></path>
        <path d="M0.920039993,1.76533878 C1.96735737,-0.124036928 3.09780697,-0.154769728 29.655807,0.133350272 C52.955807,0.385350272 57.943807,0.699350272 61.055807,2.10635027 C66.508807,4.57235027 68.855807,9.03335027 68.855807,16.9333503 C68.855807,24.8333503 66.814807,28.7453503 61.255807,31.5003503 C57.827647,33.1995503 55.1754742,33.4177391 31.8771758,33.4324755 L0.355806969,33.4333503 L0.0558069689,18.6833503 C0.0226490742,17.0517713 0.00438807082,15.5153909 1.13535891e-22,14.084042 L1.13535891e-22,13.2379151 C0.00870170579,6.9876716 0.307912232,2.90413975 0.855806969,1.88335027 L0.855806969,1.88335027 L0.920039993,1.76533878 Z" id="path-13"></path>
        <path d="M0.75,0.401106038 C1.163,-0.0118939615 12.5,-0.124893962 26,0.151106038 C45.4,0.547106038 51.645,1.00710604 56,2.36210604 C64.9,5.13110604 70.466,8.44010604 75.326,13.851106 C81.495,20.719106 83.5,26.851106 83.5,38.851106 C83.5,50.651106 81.439,57.046106 75.51,63.651106 C73.135,66.296106 69,69.651106 66.3,71.124106 C57.433,75.960106 50.9,76.851106 24.3,76.851106 L0,76.851106 L0.000905472,37.1386847 C0.0203466,17.1731044 0.35036,0.800746038 0.75,0.401106038 Z" id="path-15"></path>
    </defs>
    <g id="Page-1" stroke="none" stroke-width="1" fill="none" fill-rule="evenodd">
        <g id="474749">
            <g id="Fill-1-Clipped">
                <mask id="mask-2" fill="white">
                    <use xlink:href="#path-1"></use>
                </mask>
                <g id="path-1"></g>
                <polygon id="Fill-1" fill="#31AFB4" fill-rule="nonzero" mask="url(#mask-2)" points="0 911.1 2999.04 911.1 2999.04 -0.06 0 -0.06"></polygon>
            </g>
            <text id="®" font-family="Helvetica-Bold, Helvetica" font-size="150" font-weight="bold" fill="#F6F0F0">
                <tspan x="2771" y="382">®</tspan>
            </text>
            <g id="Fill-4-Clipped" transform="translate(707.104440, 1026.269902)">
                <mask id="mask-4" fill="white">
                    <use xlink:href="#path-3"></use>
                </mask>
                <g id="path-3"></g>
                <polygon id="Fill-4" fill="#474749" fill-rule="nonzero" mask="url(#mask-4)" points="-0.064440283 286.950098 635.09556 286.950098 635.09556 -0.0899017129 -0.064440283 -0.0899017129"></polygon>
            </g>
            <g id="Fill-7-Clipped" transform="translate(1380.201929, 1039.000000)">
                <mask id="mask-6" fill="white">
                    <use xlink:href="#path-5"></use>
                </mask>
                <g id="path-5"></g>
                <polygon id="Fill-7" fill="#474749" fill-rule="nonzero" mask="url(#mask-6)" points="-0.0819287717 263.06 836.798071 263.06 836.798071 -0.1 -0.0819287717 -0.1"></polygon>
            </g>
            <g id="Fill-10-Clipped" transform="translate(1112.549887, 1062.104356)">
                <mask id="mask-8" fill="white">
                    <use xlink:href="#path-7"></use>
                </mask>
                <g id="path-7"></g>
                <polygon id="Fill-10" fill="#474749" fill-rule="nonzero" mask="url(#mask-8)" points="-0.029886557 26.9556438 26.3701134 26.9556438 26.3701134 -0.0443562208 -0.029886557 -0.0443562208"></polygon>
            </g>
            <g id="Fill-13-Clipped" transform="translate(178.271418, 199.180400)">
                <mask id="mask-10" fill="white">
                    <use xlink:href="#path-9"></use>
                </mask>
                <g id="path-9"></g>
                <polygon id="Fill-13" fill="#AA407F" fill-rule="nonzero" mask="url(#mask-10)" points="-0.0714183883 561.6796 563.208582 561.6796 563.208582 -0.040400064 -0.0714183883 -0.040400064"></polygon>
            </g>
            <g id="Fill-16-Clipped" transform="translate(1731.800000, 416.000000)">
                <mask id="mask-12" fill="white">
                    <use xlink:href="#path-11"></use>
                </mask>
                <g id="path-11"></g>
                <polygon id="Fill-16" fill="#31AFB4" fill-rule="nonzero" mask="url(#mask-12)" points="-0.08 46.06 49.36 46.06 49.36 -0.02 -0.08 -0.02"></polygon>
            </g>
            <g id="Fill-19-Clipped" transform="translate(2327.144193, 413.066650)">
                <mask id="mask-14" fill="white">
                    <use xlink:href="#path-13"></use>
                </mask>
                <g id="path-13"></g>
                <polygon id="Fill-19" fill="#31AFB4" fill-rule="nonzero" mask="url(#mask-14)" points="-0.104193031 33.5133503 68.895807 33.5133503 68.895807 -0.0866497277 -0.104193031 -0.0866497277"></polygon>
            </g>
            <g id="Fill-22-Clipped" transform="translate(2480.000000, 413.148894)">
                <mask id="mask-16" fill="white">
                    <use xlink:href="#path-15"></use>
                </mask>
                <g id="path-15"></g>
                <polygon id="Fill-22" fill="#31AFB4" fill-rule="nonzero" mask="url(#mask-16)" points="-0.08 76.871106 83.56 76.871106 83.56 -0.0488939615 -0.08 -0.0488939615"></polygon>
            </g>
        </g>
    </g>
</svg>