<svg xmlns="http://www.w3.org/2000/svg" viewBox="0 0 2999 1314">
<path fill="#31AFB4" d="M2999,0 L2999,911 L0,911 L0,0 L2999,0 Z M861,33 L33,33 L33,878 L861,878 L861,33 Z M1766,391.264 C1761.304,388.878 1754.3,388.411 1748.4,390.092 C1741.902,391.943 1737.407,399 1711.517,448 C1685.204,497.8 1684.195,499.865 1684.059,504.2 C1683.95,507.719 1689.1,513.675 1693,514.539 C1701.05,516.323 1705.404,512.5 1713.657,496.4 L1719.5,485 L1792.8,485 L1799.634,497.6 C1807.552,512.2 1809.916,514.5 1817,514.5 C1821,514.5 1822.469,513.956 1825,511.536 C1829.5,507.234 1829.826,503.3 1826.304,495.8 C1820.575,483.6 1775.82,400.434 1773.136,397 C1771.644,395.091 1768.4,392.484 1766,391.264 Z M1517.738,393.9 C1512.805,386.62 1499.748,387.6 1496.429,395.5 C1496.378,395.622 1496.328,395.752 1496.28,395.89 L1496.209,396.103 C1495.326,398.881 1495.016,404.746 1495.001,418.359 L1495,440 L1422,440 L1422,420.3 C1422,397.7 1421.289,393.765 1416.7,390.953 C1410.1,386.911 1400.408,389.596 1398.124,396.1 C1397.365,398.259 1397.021,414.389 1397,448.941 L1397,452.2 C1397,453.961 1397,455.669 1397,457.325 L1397,462.139 C1397.016,510.838 1397.327,510.456 1403.5,513.4 C1408,515.546 1411.785,515.414 1415.8,512.972 C1421.385,509.574 1422,506.6 1422,483 L1422,462 L1494.9,462 L1495.5,508 L1498.953,511.452 C1501.687,514.156 1502.714,514.5 1507.4,514.5 C1513.8,514.5 1517.346,511.943 1519.05,506.1 C1519.579,504.285 1519.854,492.281 1519.863,471.013 L1519.863,468.485 C1519.86,462.774 1519.839,456.44 1519.8,449.5 C1519.524,400.8 1519.357,396.289 1517.738,393.9 Z M1314,389.435 C1294.1,388.934 1284.951,390.798 1270.5,398.301 C1245.674,411.191 1234.029,439.9 1241.62,469.5 C1249.746,501.185 1285.3,519.862 1325.7,513.668 C1354.4,509.269 1373.186,493.188 1362.579,482.1 C1357.233,476.511 1352,477.069 1341.2,484.38 C1321.7,497.58 1289.553,494.983 1274.609,479 C1266.458,470.282 1262.912,458.1 1264.857,445.5 C1268.195,423.886 1285.1,410.926 1309.9,410.969 C1323.667,410.993 1331.8,413.568 1346.5,422.555 C1348.7,423.9 1351.805,425.007 1353.4,425.017 C1360.8,425.059 1366.703,418.64 1365.37,412 C1364.002,405.187 1350.9,396.246 1336,391.958 C1330.31,390.321 1325,389.712 1314,389.435 Z M2363.563,391.086 L2359.75,391.086 C2357.365,391.087 2354.804,391.092 2352.05,391.1 C2331.95,391.155 2314.105,391.605 2312.4,392.1 C2310.7,392.594 2308.529,393.858 2307.593,394.9 C2303.27,399.711 2303.098,402 2303.048,455.5 C2303.044,459.892 2303.04,463.908 2303.04,467.581 L2303.04,471.142 C2303.047,504.872 2303.308,507.005 2304.95,509.7 C2308.668,515.8 2319.569,516.466 2324.602,510.9 C2326.292,509.03 2326.555,506.65 2327,489.15 L2327.5,469.5 L2367.4,469.5 L2383.981,490.5 C2401.826,513.1 2404.557,515.507 2411.4,514.667 C2416.1,514.091 2420.78,509.876 2421.578,505.5 C2422.421,500.883 2419.864,496.6 2407.011,481.1 C2400.875,473.7 2395.676,467.342 2395.4,466.9 C2395.121,466.454 2397.2,464.937 2400.1,463.47 C2407.7,459.626 2414.29,452.926 2417.579,445.7 C2420.044,440.283 2420.406,438.3 2420.45,430 C2420.485,423.3 2419.958,418.938 2418.663,415.2 C2414.996,404.622 2405.5,395.909 2394,392.568 C2390.112,391.439 2384.517,391.104 2363.563,391.086 Z M2696.6,390.047 C2679.8,387.709 2656.679,389.408 2643.6,393.942 C2622.3,401.325 2612.745,418.22 2618.626,438.1 C2620.608,444.8 2622.74,447.865 2627.9,451.433 C2636.577,457.432 2647.8,459.309 2685,460.982 C2709.6,462.089 2714.918,463.279 2718.155,468.4 C2720.548,472.186 2720.124,477.7 2717.117,481.9 C2712.154,488.833 2696.3,492.565 2675.5,491.695 C2659.5,491.026 2650.113,488.706 2638.3,482.502 C2628.2,477.198 2625.335,477.213 2620.205,482.6 C2604.183,499.426 2649.2,518.827 2693.2,514.059 C2712.2,512 2724.3,507.542 2733,499.395 C2740.186,492.667 2742.5,486.7 2742.5,474.9 C2742.5,466.3 2742.215,464.841 2739.495,459.5 C2734.098,448.903 2722.4,442.602 2703.5,440.114 C2693.5,438.798 2668.714,437.07 2659.5,437.047 C2647.1,437.015 2641,434.032 2641,428 C2641,416.655 2654.9,411.35 2682.3,412.237 C2698.5,412.761 2705.422,414.516 2715.3,420.603 C2719.3,423.068 2722.867,424.45 2726,424.75 C2730.1,425.143 2731.134,424.817 2734.1,422.2 C2737.003,419.638 2737.5,418.55 2737.5,414.75 C2737.5,411.55 2736.768,409.345 2734.893,406.9 C2729.319,399.632 2712.6,392.274 2696.6,390.047 Z M1152.5,389.414 C1123.2,388.707 1105.772,393.661 1094.863,405.8 C1087.41,414.093 1085.094,426.1 1088.634,438.1 C1090.61,444.8 1092.74,447.865 1097.9,451.433 C1106.577,457.432 1117.8,459.309 1155,460.982 C1179.6,462.089 1184.918,463.279 1188.155,468.4 C1190.548,472.186 1190.124,477.7 1187.117,481.9 C1182.154,488.833 1166.3,492.564 1145.5,491.692 C1129.5,491.022 1120.293,488.734 1108.5,482.498 C1098.3,477.105 1095.443,477.105 1090.305,482.5 C1074.244,499.364 1119.2,518.827 1163.2,514.059 C1182.2,512 1194.331,507.513 1203.1,499.302 C1210.15,492.701 1212.5,486.6 1212.5,474.9 C1212.5,466.3 1212.215,464.841 1209.495,459.5 C1204.098,448.903 1192.4,442.602 1173.5,440.114 C1163.5,438.798 1138.714,437.07 1129.5,437.047 C1117.1,437.015 1111,434 1111,427.9 C1111,416.704 1125.1,411.356 1152.3,412.237 C1168.5,412.761 1175.422,414.516 1185.3,420.603 C1189.3,423.068 1192.917,424.45 1196.15,424.75 C1200.65,425.168 1201.252,424.948 1204.5,421.7 C1214.376,411.824 1202,398.659 1176.5,391.915 C1170.45,390.316 1164.6,389.706 1152.5,389.414 Z M2119.571,395.5 C2116.252,387.6 2103.194,386.62 2098.262,393.9 C2096.676,396.24 2096.45,400.35 2096,435.05 L2095.5,473.6 L2058.5,433.9 C2038.182,412.1 2019.719,393.028 2017.55,391.6 C2014.648,389.69 2012.3,389 2008.7,389 C2004.5,389 2003.314,389.486 2000.4,392.4 L1997,395.8 L1997,461.063 C1997.012,506.787 1997.158,507.902 1999.039,510.3 C2003.855,516.439 2015.154,516.1 2019.052,509.7 L2019.16,509.519 C2019.196,509.459 2019.23,509.399 2019.264,509.339 L2019.365,509.156 C2019.381,509.126 2019.397,509.095 2019.413,509.064 L2019.507,508.876 C2020.847,506.114 2020.989,501.527 2021,472.422 L2021,469.323 L2021,468.25 L2021.001,465.749 C2021.014,445.898 2021.189,430 2021.4,430 C2022.024,430 2026.651,434.9 2063.89,475 C2080.977,493.4 2096.713,509.759 2098.8,511.293 C2103.7,514.895 2109.586,515.728 2114.3,513.486 C2120.627,510.477 2120.981,511.088 2121,463.57 L2121,460.437 C2121,459.903 2121,459.364 2121,458.819 L2121,452 C2121,451.564 2121,451.131 2121,450.702 L2121,448.166 C2120.984,407.8 2120.709,398.208 2119.571,395.5 Z M1962,391 L1914.75,391.1 C1888.55,391.155 1866.052,391.623 1864.25,392.15 C1862.135,392.768 1860.039,394.55 1858.25,397.25 L1855.5,401.4 L1855.25,453.95 C1855.192,466.142 1855.151,475.515 1855.149,482.762 L1855.149,484.53 C1855.162,505.799 1855.558,507.411 1856.962,509.7 C1860.702,515.8 1871.525,516.462 1876.588,510.9 L1876.69,510.785 C1876.791,510.669 1876.886,510.551 1876.976,510.425 L1877.065,510.297 C1878.37,508.339 1878.591,504.55 1879,485.65 L1879.5,462.5 L1944.2,461.5 L1946.6,458.7 C1948.412,456.586 1949,454.7 1949,451 C1949,447.3 1948.412,445.414 1946.6,443.3 L1944.2,440.5 L1879.5,439.5 L1879.2,428.25 C1879.024,421.65 1879.355,416.173 1880,415 L1880.065,414.885 C1880.076,414.867 1880.086,414.848 1880.098,414.83 L1880.166,414.722 C1881.206,413.153 1883.768,413.012 1914.864,413.001 L1920.379,413 L1921.55,413 L1962,413 L1965.2,410.15 C1968.038,407.623 1968.4,406.7 1968.4,402 C1968.4,397.3 1968.038,396.377 1965.2,393.85 L1962,391 Z M2265.2,391 L2216.85,391.1 C2193.176,391.149 2172.239,391.511 2166.717,391.939 L2166.368,391.968 C2165.881,392.011 2165.553,392.055 2165.4,392.1 C2163.7,392.594 2161.529,393.858 2160.593,394.9 C2156.438,399.524 2156.116,402.14 2156.101,447.196 L2156.101,456.159 C2156.118,504.905 2156.502,506.636 2163,510.447 C2163.067,510.487 2163.134,510.525 2163.201,510.563 L2163.4,510.675 C2163.467,510.712 2163.534,510.748 2163.601,510.783 L2163.804,510.886 C2166.961,512.438 2171.996,512.533 2214.5,512.787 C2266.2,513.096 2266.936,513.031 2269.585,507.9 C2273.199,500.9 2270.2,492.976 2263.2,491.029 C2260.957,490.405 2244.05,490 2220.25,490 L2181,490 L2180.45,487.75 C2180.247,486.92 2180.129,483.829 2180.124,479.974 L2180.125,479.265 C2180.128,477.952 2180.143,476.563 2180.173,475.155 L2180.19,474.386 L2180.2,474 L2180.5,462.5 L2215.2,462.021 C2253.7,461.49 2252.965,461.631 2254.91,454.4 C2256.039,450.2 2254.738,445.021 2251.9,442.423 C2249.948,440.636 2247.35,440.465 2215.15,440 L2180.5,439.5 L2180.2,428.25 C2180.024,421.65 2180.354,416.173 2181,415 L2181.065,414.885 C2181.076,414.867 2181.086,414.848 2181.098,414.83 L2181.166,414.722 C2182.208,413.151 2184.816,413.012 2216.777,413.001 L2222.447,413 L2223.65,413 L2265.2,413 L2268.1,410.1 C2270.554,407.646 2271,406.4 2271,402 C2271,397.6 2270.554,396.354 2268.1,393.9 L2265.2,391 Z M1567.55,389.25 C1562.25,388.82 1561.84,388.96 1558.45,392.35 L1554.9,395.9 L1555.2,449.2 C1555.474,497.9 1555.652,502.776 1557.26,505.7 C1561.037,512.567 1560.5,512.497 1612,512.762 C1656.8,512.991 1658.617,512.928 1661.7,511.034 C1668,507.162 1668.286,496.479 1662.2,492.337 C1659.729,490.656 1656.1,490.458 1619.5,490 L1579.5,489.5 L1578.5,395 L1575.8,392.35 C1573.708,390.297 1571.85,389.599 1567.55,389.25 Z M2482.391,391.204 L2481.284,391.204 C2469.569,391.209 2466.669,391.537 2464.195,392.512 L2463.968,392.604 L2463.741,392.699 C2463.628,392.748 2463.514,392.798 2463.4,392.85 C2460.6,394.113 2458.698,395.937 2457.4,398.6 C2457.329,398.746 2457.261,398.891 2457.195,399.037 L2457.098,399.26 C2455.609,402.771 2455.463,408.02 2455.2,447.5 C2455.155,454.196 2455.133,460.727 2455.13,466.75 L2455.13,469.392 C2455.137,484.381 2455.272,495.722 2455.5,497.7 C2455.835,500.6 2457.088,504.36 2458.334,506.2 C2462.397,512.2 2462.867,512.486 2496.164,512.499 L2502.768,512.499 C2539.122,512.481 2542.224,511.956 2557,504.807 C2567.9,499.532 2578.237,489.582 2582.772,480 C2591.716,461.1 2590.551,435.465 2580,419 C2572.878,407.888 2558.4,398.016 2542.5,393.43 C2537.457,391.976 2531,391.644 2502,391.35 C2493.654,391.265 2487.296,391.21 2482.391,391.204 Z"/>
<text font-family="Helvetica-Bold, Helvetica" font-size="150" font-weight="bold" fill="#F6F0F0"><tspan x="2771" y="382">®</tspan></text>
<path fill="#474749" transform="translate(707.104,1026.27)" d="M124.296,7.145 C129.76,10.351 137.135,18.33 140.18,24.33 C144.75,33.334 146.539,47.33 144.488,58.03 C141.65,72.83 136.938,80.122 127.096,84.945 C121.603,87.637 119.496,88.134 113.496,88.158 C102.196,88.203 92.53,82.707 87.769,73.53 C85.07,68.33 85.396,66.03 89.396,62.03 C94.261,57.165 97.414,57.63 100.911,63.73 C103.762,68.706 108.596,71.73 113.696,71.73 C122.5,71.73 126.939,65.03 127.675,50.63 C128.448,35.53 123.642,26.186 112.196,20.538 C106.762,17.856 105.101,17.397 98.378,17.377 L97.491,17.377 C97.186,17.377 96.871,17.378 96.546,17.38 C89.746,17.417 85.855,17.984 81.396,19.589 C49.98,30.893 22.284,68.23 17.87,105.23 C15.162,127.93 20.737,148.307 31.996,156.861 C40.026,162.962 43.796,164.23 53.896,164.23 C62.196,164.23 64.141,163.88 69.296,161.46 C80.172,156.353 93.951,143.53 107.154,126.23 C111.885,120.03 112.919,119.196 116.196,118.93 C119.096,118.695 120.437,119.171 122.396,121.13 C123.796,122.53 124.896,124.554 124.896,125.73 C124.896,127.335 114.703,167.13 111.219,179.13 C110.783,180.63 110.996,180.77 112.496,179.969 C116.446,177.86 128.076,166.33 134.223,158.43 C147.761,141.03 153.342,131.777 156.842,120.93 C160.908,108.33 168.297,95.602 176.813,86.53 C181.769,81.25 185.096,78.78 191.696,75.48 C199.783,71.436 200.696,71.213 210.496,70.879 C222.496,70.47 229.117,72.018 236.496,76.96 C252.796,87.876 253.898,116.795 238.596,132.067 C227.854,142.787 203.489,149.596 179.91,148.513 L179.196,148.478 L170.696,148.03 L171.108,153.63 C172.205,168.543 183.596,178.526 200.596,179.472 C211.496,180.079 219.999,177.521 229.696,170.717 C237.285,165.392 242.9,159.23 252.283,145.93 C259.358,135.901 261.735,130.63 270.859,104.73 C278.539,82.93 283.572,70.006 285.19,67.93 C287.457,65.021 298.798,67.83 300.934,71.83 C301.469,72.83 301.607,74.386 301.246,75.33 C300.902,76.23 301.019,76.818 301.496,76.58 C301.994,76.331 304.896,74.922 307.996,73.425 C326.296,64.586 346.676,69.652 354.277,84.93 C359.142,94.711 357.319,105.022 344.263,140.643 L343.864,141.73 L343.506,142.704 L343.326,143.192 L342.968,144.167 C342.848,144.493 342.729,144.818 342.61,145.142 L342.252,146.115 C338.863,155.341 335.663,164.071 334.732,166.63 C332.223,173.53 332.512,179.139 335.396,179.542 C339.679,180.139 354.518,164.13 368.311,144.03 C375.039,134.225 377.341,129.53 386.801,106.33 C401.111,71.23 399.807,73.249 408.396,72.908 C413.296,72.713 415.981,73.065 417.346,74.08 C419.254,75.499 419.214,75.73 415.497,84.83 C395.116,134.73 387.079,157.091 386.244,166.23 C385.769,171.43 385.992,172.603 387.92,175.03 C392.253,180.485 398.52,177.73 408.167,166.13 C418.811,153.33 427.601,139.541 430.352,131.33 C439.398,104.33 459.549,80.717 480.396,72.686 C489.396,69.219 503.26,69.305 510.896,72.875 C518.496,76.428 522.358,79.924 524.543,85.23 C525.572,87.73 526.64,89.73 526.946,89.73 C527.258,89.73 528.471,88.43 529.746,86.73 C531.582,84.283 532.696,83.73 535.796,83.73 C541.096,83.73 545.298,87.045 544.543,90.63 C544.251,92.016 541.326,99.218 537.934,106.918 L537.576,107.73 C534.938,113.687 531.763,121.905 528.756,130.299 L528.27,131.662 L527.788,133.026 C527.655,133.403 527.522,133.781 527.39,134.158 L526.996,135.289 C526.931,135.477 526.866,135.665 526.8,135.853 L526.412,136.98 C522.29,148.97 518.905,160.183 518.353,164.43 C516.923,175.43 520.536,181.397 526.996,178.705 C534.157,175.721 543.921,165.33 557.7,146.03 C563.452,137.972 565.582,133.83 569.68,122.73 C572.066,116.266 578.189,100.416 584.685,83.762 L585.173,82.511 C585.661,81.259 586.151,80.004 586.642,78.75 L587.6,76.298 C588.108,74.999 588.615,73.704 589.12,72.415 L589.624,71.129 C597.337,51.447 604.375,33.703 605.047,32.43 C605.842,30.921 607.147,30.682 613.819,30.917 L614.196,30.93 L622.396,31.23 L622.296,34.23 C622.241,35.877 617.798,48.73 612.443,62.73 C601.926,90.23 584.117,138.404 577.805,156.43 C572.377,171.93 572.618,178.73 578.596,178.73 C582.421,178.73 586.001,176.33 592.916,169.13 C600.285,161.456 606.082,154.03 613.914,142.23 C623.271,128.13 626.407,126.186 632.296,130.832 C636.54,134.181 635.871,138.83 629.677,149.03 C616.379,170.93 600.309,188.912 588.996,194.55 C581.196,198.437 572.973,198.884 566.196,195.787 C561.499,193.642 556.46,187.382 555.387,182.426 L555.328,182.13 L554.696,178.73 L547.696,185.335 C538.696,193.827 531.752,197.13 522.896,197.13 C517.496,197.13 515.423,196.621 511.496,194.333 C507.358,191.922 502.164,185.73 500.59,181.33 C500.359,180.685 498.996,181.322 497.296,182.869 C493.428,186.388 484.596,191.815 477.896,194.789 C473.23,196.859 470.977,197.218 461.898,197.23 L460.439,197.229 C451.296,197.212 449.78,196.906 445.296,194.546 C438.796,191.125 431.395,182.913 429.148,176.63 C428.183,173.93 427.104,171.73 426.746,171.73 C426.382,171.73 424.47,173.93 422.4,176.73 C414.735,187.102 405.196,193.535 394.296,195.686 C382.023,198.108 371.286,191.653 367.946,179.899 L367.844,179.53 L366.796,175.63 L358.095,184.53 C347.634,195.23 342.407,198.06 332.896,198.176 C324.396,198.28 318.83,195.304 315.79,189.03 C311.455,180.084 313.344,172.13 332.319,119.43 C339.34,99.93 338.533,91.727 329.296,88.698 C321.733,86.218 311.796,89.884 302.796,98.473 C291.637,109.123 284.682,122.63 269.45,163.23 C264.085,177.53 258.796,190.693 257.696,192.48 C255.824,195.521 255.516,195.719 249.579,195.73 L248.571,195.729 C239.356,195.684 237.677,193.665 240.491,186.23 C240.901,185.145 239.196,185.784 235.196,188.212 C226.264,193.635 215.196,196.85 203.396,197.45 C186.996,198.284 176.239,194.736 166.696,185.343 C161.796,180.521 154.896,168.35 154.896,164.53 C154.896,161.285 153.162,161.83 150.128,166.03 C140.912,178.786 125.124,193.661 110.144,203.73 L109.396,204.229 L101.396,209.53 L98.033,218.83 C86.463,250.83 69.281,275.898 53.496,283.808 C41.896,289.621 28.857,287.152 22.452,277.93 C19.714,273.987 19.4,272.73 19.433,265.83 C19.481,256.03 21.586,249.95 28.194,240.53 C38.449,225.912 52.796,214.133 74.896,202.187 C81.796,198.457 87.53,195.317 87.696,195.179 C88.296,194.677 96.944,165.478 96.596,165.13 C96.43,164.964 93.396,166.868 89.796,169.398 C76.444,178.782 65.196,182.124 48.796,181.579 C38.996,181.253 37.783,180.976 30.596,177.422 C17.299,170.847 8.397,159.53 2.913,142.23 C-0.263,132.209 -0.973,110.43 1.436,96.93 C7.076,65.33 24.661,35.908 48.896,17.523 C57.442,11.04 73.696,3.155 82.396,1.273 C96.196,-1.714 113.28,0.68 124.296,7.145 Z M61.142,232.622 L60.495,233.146 L59.661,233.828 C53.692,238.737 47.935,244.034 45.659,247.13 C38.746,256.53 36.675,266.112 41.296,267.309 C42.723,267.678 45.196,267.217 47.396,266.172 C50.973,264.472 58.572,255.142 65.129,244.988 L65.705,244.091 C68.091,240.342 70.317,236.509 72.13,232.93 C74.966,227.33 77.116,222.575 76.896,222.387 C75.921,221.552 68.577,226.622 61.142,232.622 Z M489.296,87.61 C469.622,92.649 449.263,120.23 444.403,148.43 C439.87,174.73 454.634,186.877 476.896,175.164 C489.277,168.649 499.031,156.93 506.387,139.73 C512.973,124.33 514.34,113.915 511.323,102.13 C509.685,95.73 507.695,92.389 503.796,89.491 C500.965,87.387 493.796,86.457 489.296,87.61 Z M192.696,94.533 C184.696,101.723 174.896,119.835 174.896,127.43 C174.896,129.35 175.596,129.716 180.396,130.303 C190.196,131.501 211.16,128.661 217.796,125.237 C222.596,122.759 229.024,116.593 230.522,113.03 C233.506,105.93 231.266,95.062 225.796,90.105 C224.476,88.909 221.596,87.437 219.396,86.835 C210.296,84.344 201.076,87.002 192.696,94.533 Z"/>
<path fill="#474749" transform="translate(1380.202,1039)" d="M253.398,0 C256.998,0 263.138,2.171 264.143,3.8 C264.441,4.283 260.678,15.198 255.737,28.21 L255.398,29.1 C255.024,30.08 254.65,31.062 254.278,32.041 L253.906,33.018 C250.065,43.105 246.418,52.721 244.71,57.265 L244.475,57.888 C244.255,58.475 244.078,58.95 243.948,59.3 L241.798,65.1 L246.098,62.589 C251.289,59.558 261.498,57.077 268.898,57.049 C277.698,57.015 284.229,59.453 289.798,64.849 C293.826,68.753 294.78,70.4 295.732,75.1 C297.482,83.739 295.781,91.3 284.62,124.5 C271.846,162.5 271.422,167.453 281.098,165.645 C285.712,164.783 293.439,157.8 302.613,146.2 C315.967,129.316 318.704,124.6 325.307,107.1 C328.741,97.998 334.055,84.238 339.462,70.367 L340.339,68.117 C349.263,45.251 358.18,22.752 359.094,21 C360.303,18.683 360.998,18.478 368.598,18.2 C375.098,17.962 376.922,18.211 377.398,19.4 C377.729,20.227 373.198,33.6 367.302,49.2 C342.888,113.8 329.182,151.892 328.226,157.8 C327.077,164.9 330.449,167.573 337.298,164.991 C342.612,162.988 352.776,151.8 366.179,133.2 C368.266,130.304 371.334,124 372.944,119.3 C382.568,91.2 402.162,68.109 423.298,59.961 C432.298,56.491 446.162,56.575 453.798,60.145 C461.398,63.698 465.258,67.194 467.435,72.5 C469.529,77.6 470.202,77.93 471.925,74.7 C473.582,71.592 474.698,71 478.898,71 C483.898,71 488.172,74.45 487.445,77.9 C487.153,79.286 484.229,86.487 480.837,94.188 L480.478,95 C477.413,101.923 473.619,111.899 470.206,121.658 L469.732,123.018 C465.415,135.465 461.806,147.308 461.229,151.7 C460.284,158.9 461.36,163.634 464.398,165.645 C466.715,167.179 467.198,167.165 470.998,165.45 C473.222,164.447 477.798,160.9 480.998,157.7 C489.698,149 504.584,128.631 505.847,123.7 C511.275,102.5 533.537,45.822 542.455,30.5 C547.925,21.1 556.658,10.178 561.198,7.058 C577.198,-3.94 594.783,-1.366 601.114,12.9 C607.381,27.022 601.469,56.6 586.203,87.5 C573.704,112.8 554.25,134.474 535.598,143.88 C532.998,145.191 530.798,146.667 530.798,147.1 C530.798,148.356 538.298,153.89 542.498,155.733 C544.92,156.796 549.198,157.418 554.298,157.45 C561.098,157.493 563.153,157.078 567.998,154.688 C575.029,151.22 580.755,145 591.464,129.2 C597.768,119.9 600.309,115.085 602.76,107.8 C610.127,85.9 622.881,69.661 638.598,62.17 C645.619,58.824 647.198,58.469 656.498,58.15 C668.398,57.741 675.035,59.295 682.398,64.213 C692.054,70.663 696.966,83.9 694.786,97.6 C691.21,120.073 674.998,131.738 642.598,135.152 C636.598,135.784 628.349,136.075 624.248,135.8 L616.798,135.3 L616.798,139.45 C616.798,141.705 617.512,145.7 618.362,148.2 C625.214,168.353 653.798,173.33 675.398,158.13 C683.745,152.256 688.925,146.4 698.956,131.5 C700.887,128.633 702.338,126.474 703.642,124.256 L703.953,123.723 C707.699,117.206 710.417,109.667 720.373,82 C728.902,58.3 730.66,54.634 733.698,54.2 C740.298,53.257 748.569,57.993 747.321,62 C746.756,63.813 747.298,63.717 753.098,60.979 C762.698,56.447 770.015,55.435 779.398,57.341 C787.898,59.069 793.22,62.061 797.287,67.4 C806.053,78.909 804.474,90 787.776,134.2 C776.971,162.8 776.273,169.914 784.698,165.536 C789.353,163.117 804.701,145.2 814.795,130.4 C819.774,123.1 824.513,116.925 825.398,116.585 C830.367,114.673 836.798,118.8 836.798,123.9 C836.798,130.096 817.337,158.3 802.986,172.9 C793.648,182.4 787.992,185.334 778.798,185.446 C770.298,185.55 764.731,182.574 761.689,176.3 C757.309,167.267 759.41,158.1 776.722,110.7 C785.378,87 785.034,79.165 775.198,75.952 C767.667,73.492 757.698,77.138 748.798,85.607 C737.319,96.531 730.152,110.4 715.264,150.5 C702.678,184.4 703.581,183 694.298,183 C685.298,183 683.592,180.913 686.451,173.4 C686.965,172.048 686.198,172.255 682.698,174.412 C668.016,183.463 647.698,187.361 632.898,183.967 C618.007,180.551 606.612,169.8 601.562,154.4 L599.398,147.8 L597.388,150.7 C592.952,157.1 580.197,168.681 574.798,171.211 C563.798,176.366 550.807,177.447 541.098,174.015 C537.998,172.919 535.216,172 534.998,172 C534.783,172 534.898,173.2 535.248,174.6 C535.59,175.97 536.462,182.964 537.207,190.272 L537.291,191.1 C539.436,212.5 537.406,227.378 530.21,243 C524.13,256.2 515.048,263 503.498,263 C487.294,263 477.177,248.4 479.244,228 C479.899,221.542 483.527,204.6 488.817,183.3 L491.598,172.1 L486.998,175.982 C472.698,188.049 455.047,187.31 446.81,174.3 C445.227,171.8 443.715,169.198 443.498,168.6 C443.264,167.955 441.898,168.592 440.198,170.139 C436.33,173.658 427.498,179.085 420.798,182.059 C416.048,184.167 413.798,184.5 404.298,184.5 L403.342,184.499 C394.199,184.482 392.682,184.176 388.198,181.814 C381.798,178.444 374.424,170.292 372.083,164 C371.116,161.4 369.931,159.154 369.498,159.1 C369.06,159.045 366.236,161.9 363.265,165.4 C357.152,172.6 347.41,180.349 340.998,183.111 C332.898,186.6 321.768,185.105 315.998,179.752 C313.098,177.062 309.798,170.86 309.798,168.1 C309.798,165.008 308.717,165.5 303.218,171.1 C289.959,184.6 275.56,188.972 263.898,183.038 C254.118,178.061 251.46,165.4 256.773,149.1 C257.657,146.388 260.868,137.131 264.28,127.447 L264.627,126.461 L265.15,124.98 C265.324,124.486 265.499,123.993 265.673,123.5 C276.426,93.1 279.065,83.834 277.86,80.7 C276.304,76.655 271.498,74.656 264.798,75.269 C258.236,75.869 255.198,77.263 247.898,83.023 C235.867,92.517 222.231,116.7 209.287,151.5 C196.008,187.2 198.114,184 187.898,184 C178.098,184 176.808,182.921 179.169,176.7 C181.37,170.9 181.214,170.589 177.498,173.381 C168.101,180.441 155.698,184.265 141.798,184.388 C126.298,184.525 113.76,180.138 106.398,172 C102.417,167.6 98.798,160.362 98.798,156.8 C98.798,155.665 97.43,156.514 93.879,160.036 L93.46,160.454 C92.243,161.673 90.79,163.18 89.072,165 C72.358,182.7 64.682,187.011 49.798,187.058 C40.998,187.086 32.999,184.524 26.498,179.595 C21.498,175.805 17.798,170.618 17.798,167.4 C17.798,164.709 24.798,159 28.098,159 C29.276,159 31.998,160.753 34.298,162.993 C39.398,167.96 43.376,168.885 47.098,165.968 C50.912,162.978 53.644,157.1 55.357,148.2 C57.992,134.5 57.122,77.661 54.339,81.7 C53.678,82.659 49.164,90.908 44.225,100.179 L43.788,101 C30.274,126.4 21.073,141.934 17.013,146.2 C13.817,149.56 12.848,150 8.648,150 C4.748,150 3.534,149.535 1.867,147.4 C-0.877,143.888 -0.766,143.1 3.337,137 C6.555,132.215 16.902,114.064 27.567,94.573 L28.312,93.211 C28.933,92.075 29.554,90.935 30.174,89.794 L31.29,87.739 L32.032,86.369 C32.279,85.912 32.526,85.456 32.772,85 C42.872,66.3 47.622,59.004 50.398,57.929 C51.714,57.42 55.598,57.304 58.998,57.672 C66.398,58.475 70.046,61.339 71.646,67.6 C72.605,71.352 73.652,87.803 74.216,103.928 L74.272,105.566 C74.623,116.2 74.755,126.499 74.502,132.7 C74.458,133.77 74.404,134.861 74.341,135.957 L74.285,136.896 C73.859,143.79 73.106,150.665 72.448,153.3 C70.998,159.1 70.998,159.1 72.998,157.34 C74.851,155.71 79.839,149.66 84.781,143.249 L85.412,142.429 C88.876,137.911 92.25,133.3 94.434,130 C97.578,125.25 100.44,119.2 102.239,113.5 C111.868,83 132.338,61.578 155.398,57.87 C171.498,55.281 186.077,63.038 190.039,76.3 C191.679,81.791 189.317,92.9 183.871,105.3 C178.908,116.6 173.892,123 169.998,123 C165.598,123 160.069,121.07 159.402,119.3 C159.048,118.362 161.13,112.9 164.434,106.1 C173.909,86.6 174.968,81.334 170.298,76.953 C166.698,73.577 156.398,73.5 149.698,76.801 C133.107,84.974 115.798,117.6 115.798,140.7 C115.798,160.234 125.998,169.009 145.598,166.336 C155.798,164.945 162.953,162.052 170.998,156.063 C178.64,150.374 186.211,141.6 195.299,127.9 C201.841,118.039 203.51,113.9 227.533,48 C236.574,23.2 244.596,4.713 247.398,2.222 C248.969,0.825 251.198,0 253.398,0 Z M512.998,163.8 C512.387,163.189 509.882,170.874 507.691,179.385 L507.501,180.127 C507.406,180.499 507.313,180.872 507.22,181.246 L507.035,181.994 L506.854,182.742 C506.794,182.991 506.734,183.24 506.675,183.489 L506.5,184.234 C506.037,186.218 505.614,188.171 505.257,190 C505.194,190.325 505.124,190.676 505.05,191.049 L504.895,191.825 C504.302,194.774 503.455,198.841 502.571,202.995 L502.208,204.697 C501.683,207.154 501.154,209.593 500.668,211.8 C497.32,227 496.996,234.981 499.523,240 C502.041,245 505.109,245.135 509.898,240.455 C517.645,232.885 520.299,221.5 519.515,199.2 C519.107,187.6 518.439,182.391 516.348,174.5 C514.891,169 513.383,164.185 512.998,163.8 Z M446.698,76.761 C443.866,74.657 436.698,73.725 432.198,74.875 C418.501,78.377 404.544,92.2 395.218,111.5 C386.907,128.7 384.209,146.438 388.449,156 C393.685,167.807 405.098,170.178 419.698,162.492 C432.074,155.977 441.976,144.1 449.289,127 C455.875,111.6 457.242,101.185 454.225,89.4 C452.587,83 450.597,79.659 446.698,76.761 Z M579.098,20.019 C569.846,20.071 559.18,33.8 549.979,57.5 C533.441,100.1 523.54,127 524.398,127 C524.731,127 528.198,125.331 532.198,123.244 C551.044,113.414 568.919,87.3 580.827,52.2 C585.814,37.5 587.137,26.619 584.437,22.5 C583.152,20.541 581.998,20.004 579.098,20.019 Z M666.098,74.44 C657.398,71.326 647.235,74.049 638.598,81.808 C630.598,88.996 620.798,107.105 620.798,114.7 C620.798,116.634 621.498,116.988 626.598,117.625 C634.098,118.563 656.151,115.824 662.098,113.216 C667.698,110.761 674.143,105.004 676.223,100.6 C679.387,93.9 677.259,82.349 671.998,77.669 C670.837,76.636 668.198,75.192 666.098,74.44 Z"/>
<path fill="#474749" transform="translate(1112.55,1062.104)" d="M7.45,1.666 C11.667,-0.459 13.45,-0.521 17.75,1.31 C31.158,7.018 28.05,26.896 13.75,26.896 C5.25,26.896 0.158,22.007 0.003,13.696 C-0.1,8.196 2.352,4.235 7.45,1.666 Z"/>
<path fill="#AA407F" transform="translate(178.271,199.18)" d="M280.347,0 C296.218,0.009 311.526,0.29 319.229,0.851 C390.529,6.04 451.754,24.005 494.729,52.346 C520.529,69.361 533.019,83.402 538.203,101.22 C540.56,109.32 539.855,124.92 536.767,133.02 C530.242,150.133 512.829,160.943 491.729,160.98 C473.888,161.011 463.129,157.217 443.029,143.809 C407.827,120.325 370.429,107.751 321.229,102.856 C281.529,98.906 225.386,101.44 188.229,108.86 C144.929,117.507 118.357,133.308 109.594,155.62 C106.414,163.72 106.393,178.872 109.553,186.92 C114.495,199.509 130.029,208.345 154.229,212.331 C164.086,213.954 188.229,215.247 237.229,216.776 C293.729,218.539 377.411,225.677 408.629,231.396 C510.529,250.067 557.351,293.206 562.667,373.32 C567.259,442.52 537.909,492.594 473.929,524.712 C422.276,550.642 350.729,563.219 264.729,561.487 C215.329,560.492 171.325,554.635 127.829,543.266 C80.129,530.799 41.154,511.475 19.224,489.42 C6.328,476.451 0.729,464.22 0.729,449.02 C0.729,441.82 3.01,432.068 6.108,426.02 C13.966,410.679 32.129,399.845 49.929,399.88 C65.307,399.911 75.729,403.832 95.029,416.851 C118.669,432.797 146.829,443.46 186.229,451.386 C229.721,460.135 273.329,462.483 323.229,458.763 C369.629,455.305 403.365,447.015 426.229,433.455 C436.329,427.465 447.728,416.223 452.019,408.02 C463.58,385.92 461.711,363.695 446.947,347.72 C440.282,340.509 435.429,337.653 422.529,333.353 C399.878,325.803 378.429,323.307 323.329,321.809 C246.429,319.718 172.274,315.079 138.229,310.23 C116.829,307.182 81.697,297.654 68.129,291.217 C58.523,286.661 38.303,271.62 28.474,261.72 C22.374,255.576 19.911,252.12 16.287,244.62 C-2.041,206.688 -5.16,157.62 8.252,118.22 C31.392,50.248 111.329,9.029 235.729,0.925 C244.929,0.326 261.792,0.015 278.361,0 L280.347,0 Z"/>
<path fill="#31AFB4" transform="translate(1731.8,416)" d="M24.7,0 C24.866,0 29.143,7.95 34.25,17.75 C34.489,18.209 34.73,18.67 34.97,19.131 L35.451,20.052 C40.184,29.114 44.924,38.077 46.4,40.75 L49.3,46 L0,46 L7.7,31.25 C9.11,28.55 10.661,25.598 12.193,22.694 L12.733,21.671 C15.607,16.234 18.35,11.093 19.9,8.25 C22.354,3.75 24.536,0 24.7,0 Z"/>
<path fill="#31AFB4" transform="translate(2327.144,413.067)" d="M0.92,1.765 C1.967,-0.124 3.098,-0.155 29.656,0.133 C52.956,0.385 57.944,0.699 61.056,2.106 C66.509,4.572 68.856,9.033 68.856,16.933 C68.856,24.833 66.815,28.745 61.256,31.5 C57.828,33.2 55.175,33.418 31.877,33.432 L0.356,33.433 L0.056,18.683 C0.023,17.052 0.004,15.515 0,14.084 L0,13.238 C0.009,6.988 0.308,2.904 0.856,1.883 L0.92,1.765 Z"/>
<path fill="#31AFB4" transform="translate(2480,413.149)" d="M0.75,0.401 C1.163,-0.012 12.5,-0.125 26,0.151 C45.4,0.547 51.645,1.007 56,2.362 C64.9,5.131 70.466,8.44 75.326,13.851 C81.495,20.719 83.5,26.851 83.5,38.851 C83.5,50.651 81.439,57.046 75.51,63.651 C73.135,66.296 69,69.651 66.3,71.124 C57.433,75.96 50.9,76.851 24.3,76.851 L0,76.851 L0.001,37.139 C0.02,17.173 0.35,0.801 0.75,0.401 Z"/>
</svg>
